<?xml version="1.0" encoding="UTF-8" standalone="no"?>
<svg
   xmlns:dc="http://purl.org/dc/elements/1.1/"
   xmlns:cc="http://creativecommons.org/ns#"
   xmlns:rdf="http://www.w3.org/1999/02/22-rdf-syntax-ns#"
   xmlns:svg="http://www.w3.org/2000/svg"
   xmlns="http://www.w3.org/2000/svg"
   xmlns:sodipodi="http://sodipodi.sourceforge.net/DTD/sodipodi-0.dtd"
   xmlns:inkscape="http://www.inkscape.org/namespaces/inkscape"
   version="1.1"
   id="Capa_1"
   x="0px"
   y="0px"
   viewBox="0 0 412.72 412.72"
   style="enable-background:new 0 0 412.72 412.72;"
   xml:space="preserve"
   sodipodi:docname="enciclopedia-front-end.svg"
   inkscape:version="1.0.2 (e86c870879, 2021-01-15, custom)"><metadata
   id="metadata1602"><rdf:RDF><cc:Work
       rdf:about=""><dc:format>image/svg+xml</dc:format><dc:type
         rdf:resource="http://purl.org/dc/dcmitype/StillImage" /><dc:title></dc:title></cc:Work></rdf:RDF></metadata><defs
   id="defs1600" /><sodipodi:namedview
   pagecolor="#ffffff"
   bordercolor="#666666"
   borderopacity="1"
   objecttolerance="10"
   gridtolerance="10"
   guidetolerance="10"
   inkscape:pageopacity="0"
   inkscape:pageshadow="2"
   inkscape:window-width="1920"
   inkscape:window-height="1001"
   id="namedview1598"
   showgrid="false"
   inkscape:zoom="0.71101307"
   inkscape:cx="139.19325"
   inkscape:cy="6.9611856"
   inkscape:window-x="-9"
   inkscape:window-y="-9"
   inkscape:window-maximized="1"
   inkscape:current-layer="Capa_1" />
<g
   id="g1565"
   transform="matrix(0.74101149,0,0,0.81001218,53.444869,-22.677734)">
	<g
   id="g1563">
		<path
   d="m 404.72,82.944 c -0.027,0 -0.054,0 -0.08,0 v 0 h -27.12 v -9.28 c 0.146,-3.673 -2.23,-6.974 -5.76,-8 -18.828,-4.934 -38.216,-7.408 -57.68,-7.36 -32,0 -75.6,7.2 -107.84,40 -32,-33.12 -75.92,-40 -107.84,-40 -19.464,-0.048 -38.852,2.426 -57.68,7.36 -3.53,1.026 -5.906,4.327 -5.76,8 v 9.2 H 8 c -4.418,0 -8,3.582 -8,8 v 255.52 c 0,4.418 3.582,8 8,8 1.374,-0.004 2.724,-0.362 3.92,-1.04 0.8,-0.4 80.8,-44.16 192.48,-16 h 1.2 0.72 c 0.638,0.077 1.282,0.077 1.92,0 112,-28.4 192,15.28 192.48,16 2.475,1.429 5.525,1.429 8,0 2.46,-1.42 3.983,-4.039 4,-6.88 V 90.944 c 0,-4.418 -3.581,-8 -8,-8 z M 16,333.664 V 98.944 h 19.12 v 200.64 c -0.05,4.418 3.491,8.04 7.909,8.09 0.432,0.005 0.864,-0.025 1.291,-0.09 16.55,-2.527 33.259,-3.864 50,-4 23.19,-0.402 46.283,3.086 68.32,10.32 -49.765,-6.018 -100.243,0.784 -146.64,19.76 z m 78.32,-46 c -14.551,0.033 -29.085,0.968 -43.52,2.8 V 79.984 c 15.576,-3.47 31.482,-5.241 47.44,-5.28 29.92,0 71.2,6.88 99.84,39.2 l 0.24,199.28 c -16.64,-10.88 -49.12,-25.52 -104,-25.52 z m 120,-173.76 c 28.64,-32 69.92,-39.2 99.84,-39.2 15.957,0.047 31.863,1.817 47.44,5.28 v 210.48 c -14.354,-1.849 -28.808,-2.811 -43.28,-2.88 -54.56,0 -87.12,14.64 -104,25.52 z m 182.32,219.76 c -46.496,-19.028 -97.09,-25.831 -146.96,-19.76 22.141,-7.26 45.344,-10.749 68.64,-10.32 16.846,0.094 33.663,1.404 50.32,3.92 4.368,0.663 8.447,-2.341 9.11,-6.709 0.065,-0.427 0.095,-0.859 0.09,-1.291 V 98.944 h 19.12 z"
   id="path1561" />
	</g>
</g>
<g
   id="g1567">
</g>
<g
   id="g1569">
</g>
<g
   id="g1571">
</g>
<g
   id="g1573">
</g>
<g
   id="g1575">
</g>
<g
   id="g1577">
</g>
<g
   id="g1579">
</g>
<g
   id="g1581">
</g>
<g
   id="g1583">
</g>
<g
   id="g1585">
</g>
<g
   id="g1587">
</g>
<g
   id="g1589">
</g>
<g
   id="g1591">
</g>
<g
   id="g1593">
</g>
<g
   id="g1595">
</g>
<text
   xml:space="preserve"
   style="font-size:57.7249px;line-height:1.25;font-family:'Source sans pro';-inkscape-font-specification:'Source sans pro';letter-spacing:0px;word-spacing:0px;stroke-width:1.44313"
   x="56.848843"
   y="319.22491"
   id="text2167"><tspan
     sodipodi:role="line"
     x="56.848843"
     y="319.22491"
     id="tspan2169"
     style="stroke-width:1.44313">enciclopedia</tspan></text><text
   xml:space="preserve"
   style="font-size:85.4464px;line-height:1.25;font-family:'Source sans pro';-inkscape-font-specification:'Source sans pro';letter-spacing:0px;word-spacing:0px;stroke-width:2.13616"
   x="56.300804"
   y="399.98505"
   id="text2175"><tspan
     sodipodi:role="line"
     id="tspan2173"
     x="56.300804"
     y="399.98505"
     style="stroke-width:2.13616">frontend</tspan></text></svg>
